<svg width="219" height="14" viewBox="0 0 219 14" fill="none" xmlns="http://www.w3.org/2000/svg">
<path d="M98.9045 6.23838V6.99616H100.448V11.7096H96.0436V10.0771H95.3399V11.7096H90.9351V6.99616H92.4791V6.23838H90.9351V1.46436H95.3399V3.15746H96.0436V1.46436H100.448V6.23838H98.9045Z" fill="#00A78E"/>
<path d="M14.0958 6.58564L11.3849 4.98153L12.1669 1.92881L9.11423 2.71086L7.51012 0L5.90487 2.71086L2.8533 1.92881L3.6342 4.98153L0.92334 6.58564L3.6342 8.19089L2.8533 11.2436L5.90487 10.4616L7.51012 13.1724L9.11423 10.4616L12.1669 11.2436L11.3849 8.19089L14.0958 6.58564ZM8.7072 7.21676L8.14124 7.78271L7.51012 7.15159L6.879 7.78271L6.31304 7.21676L6.94417 6.58564L6.31304 5.95451L6.879 5.38856L7.51012 6.01968L8.14124 5.38856L8.7072 5.95451L8.07607 6.58564L8.7072 7.21676Z" fill="#00A78E"/>
<path d="M68.4369 1.46436H68.4311V4.9643V5.85007H67.6291V4.58992L60.9312 1.46436V11.7096L67.6129 8.59155L67.6256 8.58616L68.4311 8.20962L69.0174 7.93558L69.3763 8.53329L68.4311 9.02851V11.7096H71.9082V1.46436H68.4369Z" fill="#00A78E"/>
<path d="M39.9981 10.4065L31.5093 12.4405L36.5461 7.43094L35.9824 6.86352L30.9272 11.8891L32.966 3.36975C34.6914 3.9978 36.6536 3.42466 39.0319 0.731689L42.6361 4.33757C39.9444 6.71708 39.3715 8.68018 39.9981 10.4065Z" fill="#00A78E"/>
<path d="M219 3.49526L213.371 5.59125H219V7.62215L213.375 9.71709H219V11.7096H208.023V9.71709L213.753 7.58267H208.023V5.59125L213.751 3.45683H208.023V1.46436H219V3.49526Z" fill="#00A78E"/>
<path d="M188.996 1.46436L179.023 3.98271L182.007 5.73702L183.052 4.99859L183.496 5.62604L183.487 5.63244L183.448 5.65805L182.72 6.15745H182.721L178.751 8.87642L181.585 11.7096L184.303 7.73996L186.478 11.4375L188.996 1.46436Z" fill="#00A78E"/>
<path d="M160.456 4.63726V8.5338H157.317L156.498 7.66013L155.974 8.21887L156.27 8.5338L156.793 9.09255V12.4405H153.14V9.09368L153.961 8.21887L153.437 7.66013L152.618 8.5338H149.479V4.63726H152.617L153.14 5.19601L153.437 5.51206L153.961 4.95332L153.14 4.07852V0.731689H156.793V4.07964L156.271 4.63726L155.974 4.95332L156.498 5.51206L157.318 4.63726H160.456Z" fill="#00A78E"/>
<path d="M130.452 4.3663V9.51358L125.329 12.4405L120.207 9.51358V4.405L121.864 5.35484L122.256 4.68475L120.336 3.58564L125.329 0.731689L130.29 3.56573L128.336 4.68475L128.727 5.35484L130.452 4.3663Z" fill="#00A78E"/>
</svg>
